<mxfile host="app.diagrams.net" modified="2023-09-05T18:05:46.088Z" agent="Mozilla/5.0 (Windows NT 10.0; Win64; x64; rv:109.0) Gecko/20100101 Firefox/117.0" etag="18rbKFoxqjvtiZLJmdk5" version="21.7.2" type="device">
  <diagram name="Page-1" id="6pJ0-AzW8CNM2vYW4kGI">
    <mxGraphModel dx="1149" dy="1567" grid="1" gridSize="10" guides="1" tooltips="1" connect="1" arrows="1" fold="1" page="1" pageScale="1" pageWidth="850" pageHeight="1100" math="0" shadow="0">
      <root>
        <mxCell id="0" />
        <mxCell id="1" parent="0" />
        <mxCell id="H447cMF2xVYTT7RYKdKf-12" style="edgeStyle=orthogonalEdgeStyle;rounded=0;orthogonalLoop=1;jettySize=auto;html=1;entryX=0;entryY=0.5;entryDx=0;entryDy=0;" edge="1" parent="1" source="H447cMF2xVYTT7RYKdKf-7" target="H447cMF2xVYTT7RYKdKf-10">
          <mxGeometry relative="1" as="geometry" />
        </mxCell>
        <mxCell id="H447cMF2xVYTT7RYKdKf-64" style="edgeStyle=orthogonalEdgeStyle;rounded=0;orthogonalLoop=1;jettySize=auto;html=1;entryX=-0.002;entryY=0.562;entryDx=0;entryDy=0;entryPerimeter=0;" edge="1" parent="1" source="H447cMF2xVYTT7RYKdKf-7" target="H447cMF2xVYTT7RYKdKf-60">
          <mxGeometry relative="1" as="geometry" />
        </mxCell>
        <mxCell id="H447cMF2xVYTT7RYKdKf-7" value="" style="rounded=1;whiteSpace=wrap;html=1;" vertex="1" parent="1">
          <mxGeometry x="30" y="60" width="250" height="300" as="geometry" />
        </mxCell>
        <mxCell id="H447cMF2xVYTT7RYKdKf-10" value="" style="rounded=1;whiteSpace=wrap;html=1;" vertex="1" parent="1">
          <mxGeometry x="350" y="60" width="490" height="300" as="geometry" />
        </mxCell>
        <mxCell id="H447cMF2xVYTT7RYKdKf-22" value="&lt;font style=&quot;font-size: 18px;&quot;&gt;&lt;b&gt;SOURCE&lt;/b&gt;&lt;/font&gt;" style="text;strokeColor=none;align=center;fillColor=none;html=1;verticalAlign=middle;whiteSpace=wrap;rounded=0;" vertex="1" parent="1">
          <mxGeometry x="130" y="20" width="60" height="30" as="geometry" />
        </mxCell>
        <mxCell id="H447cMF2xVYTT7RYKdKf-28" value="" style="shape=image;html=1;verticalAlign=top;verticalLabelPosition=bottom;labelBackgroundColor=#ffffff;imageAspect=0;aspect=fixed;image=https://cdn3.iconfinder.com/data/icons/document-icons-2/30/647702-excel-128.png" vertex="1" parent="1">
          <mxGeometry x="50" y="90" width="70" height="70" as="geometry" />
        </mxCell>
        <mxCell id="H447cMF2xVYTT7RYKdKf-30" value="" style="shape=image;html=1;verticalAlign=top;verticalLabelPosition=bottom;labelBackgroundColor=#ffffff;imageAspect=0;aspect=fixed;image=https://cdn0.iconfinder.com/data/icons/logos-microsoft-office-365/128/Microsoft_Office_Mesa_de_trabajo_1-128.png" vertex="1" parent="1">
          <mxGeometry x="50" y="180" width="70" height="70" as="geometry" />
        </mxCell>
        <mxCell id="H447cMF2xVYTT7RYKdKf-31" value="" style="shape=image;html=1;verticalAlign=top;verticalLabelPosition=bottom;labelBackgroundColor=#ffffff;imageAspect=0;aspect=fixed;image=https://cdn4.iconfinder.com/data/icons/file-extensions-1/64/pdfs-128.png" vertex="1" parent="1">
          <mxGeometry x="60" y="260" width="70" height="70" as="geometry" />
        </mxCell>
        <mxCell id="H447cMF2xVYTT7RYKdKf-32" value="Survey input" style="text;strokeColor=none;align=center;fillColor=none;html=1;verticalAlign=middle;whiteSpace=wrap;rounded=0;" vertex="1" parent="1">
          <mxGeometry x="150" y="110" width="60" height="30" as="geometry" />
        </mxCell>
        <mxCell id="H447cMF2xVYTT7RYKdKf-33" value="CV" style="text;strokeColor=none;align=center;fillColor=none;html=1;verticalAlign=middle;whiteSpace=wrap;rounded=0;" vertex="1" parent="1">
          <mxGeometry x="150" y="195" width="60" height="30" as="geometry" />
        </mxCell>
        <mxCell id="H447cMF2xVYTT7RYKdKf-34" value="CV" style="text;strokeColor=none;align=center;fillColor=none;html=1;verticalAlign=middle;whiteSpace=wrap;rounded=0;" vertex="1" parent="1">
          <mxGeometry x="150" y="280" width="60" height="30" as="geometry" />
        </mxCell>
        <mxCell id="H447cMF2xVYTT7RYKdKf-35" value="&lt;b&gt;&lt;font style=&quot;font-size: 18px;&quot;&gt;Data ingestion solution&lt;/font&gt;&lt;/b&gt;" style="text;strokeColor=none;align=center;fillColor=none;html=1;verticalAlign=middle;whiteSpace=wrap;rounded=0;" vertex="1" parent="1">
          <mxGeometry x="500" y="-30" width="230" height="30" as="geometry" />
        </mxCell>
        <mxCell id="H447cMF2xVYTT7RYKdKf-36" value="&lt;font style=&quot;font-size: 18px;&quot;&gt;&lt;b&gt;AZURE&lt;/b&gt;&lt;/font&gt;" style="text;strokeColor=none;align=center;fillColor=none;html=1;verticalAlign=middle;whiteSpace=wrap;rounded=0;" vertex="1" parent="1">
          <mxGeometry x="378" y="20" width="60" height="30" as="geometry" />
        </mxCell>
        <mxCell id="H447cMF2xVYTT7RYKdKf-43" style="edgeStyle=orthogonalEdgeStyle;rounded=0;orthogonalLoop=1;jettySize=auto;html=1;entryX=0.04;entryY=0.52;entryDx=0;entryDy=0;entryPerimeter=0;" edge="1" parent="1" source="H447cMF2xVYTT7RYKdKf-39" target="H447cMF2xVYTT7RYKdKf-41">
          <mxGeometry relative="1" as="geometry" />
        </mxCell>
        <mxCell id="H447cMF2xVYTT7RYKdKf-39" value="" style="image;aspect=fixed;html=1;points=[];align=center;fontSize=12;image=img/lib/azure2/storage/Data_Lake_Storage_Gen1.svg;" vertex="1" parent="1">
          <mxGeometry x="376" y="120" width="64" height="52" as="geometry" />
        </mxCell>
        <mxCell id="H447cMF2xVYTT7RYKdKf-44" style="edgeStyle=orthogonalEdgeStyle;rounded=0;orthogonalLoop=1;jettySize=auto;html=1;entryX=0.156;entryY=0.385;entryDx=0;entryDy=0;entryPerimeter=0;" edge="1" parent="1" source="H447cMF2xVYTT7RYKdKf-41" target="H447cMF2xVYTT7RYKdKf-42">
          <mxGeometry relative="1" as="geometry" />
        </mxCell>
        <mxCell id="H447cMF2xVYTT7RYKdKf-41" value="" style="image;sketch=0;aspect=fixed;html=1;points=[];align=center;fontSize=12;image=img/lib/mscae/Data_Factory.svg;" vertex="1" parent="1">
          <mxGeometry x="560" y="120" width="50" height="50" as="geometry" />
        </mxCell>
        <mxCell id="H447cMF2xVYTT7RYKdKf-42" value="" style="image;aspect=fixed;html=1;points=[];align=center;fontSize=12;image=img/lib/azure2/integration/SQL_Data_Warehouses.svg;" vertex="1" parent="1">
          <mxGeometry x="720" y="120" width="64" height="65" as="geometry" />
        </mxCell>
        <mxCell id="H447cMF2xVYTT7RYKdKf-52" style="edgeStyle=orthogonalEdgeStyle;rounded=0;orthogonalLoop=1;jettySize=auto;html=1;entryX=0.047;entryY=0.504;entryDx=0;entryDy=0;entryPerimeter=0;" edge="1" parent="1" source="H447cMF2xVYTT7RYKdKf-45" target="H447cMF2xVYTT7RYKdKf-46">
          <mxGeometry relative="1" as="geometry" />
        </mxCell>
        <mxCell id="H447cMF2xVYTT7RYKdKf-45" value="" style="image;aspect=fixed;html=1;points=[];align=center;fontSize=12;image=img/lib/azure2/analytics/Azure_Databricks.svg;" vertex="1" parent="1">
          <mxGeometry x="490" y="203.66" width="42.8" height="46.34" as="geometry" />
        </mxCell>
        <mxCell id="H447cMF2xVYTT7RYKdKf-54" style="edgeStyle=orthogonalEdgeStyle;rounded=0;orthogonalLoop=1;jettySize=auto;html=1;" edge="1" parent="1" source="H447cMF2xVYTT7RYKdKf-46" target="H447cMF2xVYTT7RYKdKf-47">
          <mxGeometry relative="1" as="geometry" />
        </mxCell>
        <mxCell id="H447cMF2xVYTT7RYKdKf-46" value="" style="image;aspect=fixed;html=1;points=[];align=center;fontSize=12;image=img/lib/azure2/analytics/Azure_Databricks.svg;" vertex="1" parent="1">
          <mxGeometry x="583.6" y="203.66" width="42.8" height="46.34" as="geometry" />
        </mxCell>
        <mxCell id="H447cMF2xVYTT7RYKdKf-47" value="" style="image;aspect=fixed;html=1;points=[];align=center;fontSize=12;image=img/lib/azure2/analytics/Azure_Databricks.svg;" vertex="1" parent="1">
          <mxGeometry x="665" y="199.76" width="50" height="54.14" as="geometry" />
        </mxCell>
        <mxCell id="H447cMF2xVYTT7RYKdKf-48" value="Extraction" style="text;strokeColor=none;align=center;fillColor=none;html=1;verticalAlign=middle;whiteSpace=wrap;rounded=0;" vertex="1" parent="1">
          <mxGeometry x="481.4" y="250" width="60" height="30" as="geometry" />
        </mxCell>
        <mxCell id="H447cMF2xVYTT7RYKdKf-50" value="Transformation " style="text;strokeColor=none;align=center;fillColor=none;html=1;verticalAlign=middle;whiteSpace=wrap;rounded=0;" vertex="1" parent="1">
          <mxGeometry x="575" y="250" width="60" height="30" as="geometry" />
        </mxCell>
        <mxCell id="H447cMF2xVYTT7RYKdKf-51" value="Load" style="text;strokeColor=none;align=center;fillColor=none;html=1;verticalAlign=middle;whiteSpace=wrap;rounded=0;" vertex="1" parent="1">
          <mxGeometry x="665" y="253.9" width="60" height="30" as="geometry" />
        </mxCell>
        <mxCell id="H447cMF2xVYTT7RYKdKf-56" value="DataLake" style="text;strokeColor=none;align=center;fillColor=none;html=1;verticalAlign=middle;whiteSpace=wrap;rounded=0;" vertex="1" parent="1">
          <mxGeometry x="376" y="180" width="60" height="30" as="geometry" />
        </mxCell>
        <mxCell id="H447cMF2xVYTT7RYKdKf-57" value="Data factory " style="text;strokeColor=none;align=center;fillColor=none;html=1;verticalAlign=middle;whiteSpace=wrap;rounded=0;" vertex="1" parent="1">
          <mxGeometry x="546.4" y="80" width="80" height="30" as="geometry" />
        </mxCell>
        <mxCell id="H447cMF2xVYTT7RYKdKf-58" value="Datawarehouse" style="text;strokeColor=none;align=center;fillColor=none;html=1;verticalAlign=middle;whiteSpace=wrap;rounded=0;" vertex="1" parent="1">
          <mxGeometry x="740" y="190" width="60" height="30" as="geometry" />
        </mxCell>
        <mxCell id="H447cMF2xVYTT7RYKdKf-60" value="" style="rounded=1;whiteSpace=wrap;html=1;" vertex="1" parent="1">
          <mxGeometry x="360" y="430" width="470" height="310" as="geometry" />
        </mxCell>
        <mxCell id="H447cMF2xVYTT7RYKdKf-61" value="&lt;font style=&quot;font-size: 18px;&quot;&gt;&lt;b&gt;&lt;font&gt;GITLAB&lt;/font&gt;&lt;/b&gt;&lt;/font&gt; " style="text;strokeColor=none;align=center;fillColor=none;html=1;verticalAlign=middle;whiteSpace=wrap;rounded=0;" vertex="1" parent="1">
          <mxGeometry x="378" y="390" width="92" height="30" as="geometry" />
        </mxCell>
        <mxCell id="H447cMF2xVYTT7RYKdKf-70" style="edgeStyle=orthogonalEdgeStyle;rounded=0;orthogonalLoop=1;jettySize=auto;html=1;" edge="1" parent="1" source="H447cMF2xVYTT7RYKdKf-65" target="H447cMF2xVYTT7RYKdKf-67">
          <mxGeometry relative="1" as="geometry" />
        </mxCell>
        <mxCell id="H447cMF2xVYTT7RYKdKf-65" value="" style="image;aspect=fixed;html=1;points=[];align=center;fontSize=12;image=img/lib/azure2/general/Folder_Blank.svg;" vertex="1" parent="1">
          <mxGeometry x="378" y="480" width="69" height="56.00000000000001" as="geometry" />
        </mxCell>
        <mxCell id="H447cMF2xVYTT7RYKdKf-66" value="All source" style="text;strokeColor=none;align=center;fillColor=none;html=1;verticalAlign=middle;whiteSpace=wrap;rounded=0;" vertex="1" parent="1">
          <mxGeometry x="380" y="540" width="60" height="30" as="geometry" />
        </mxCell>
        <mxCell id="H447cMF2xVYTT7RYKdKf-71" value="" style="edgeStyle=orthogonalEdgeStyle;rounded=0;orthogonalLoop=1;jettySize=auto;html=1;" edge="1" parent="1" source="H447cMF2xVYTT7RYKdKf-67" target="H447cMF2xVYTT7RYKdKf-69">
          <mxGeometry relative="1" as="geometry" />
        </mxCell>
        <mxCell id="H447cMF2xVYTT7RYKdKf-67" value="" style="outlineConnect=0;dashed=0;verticalLabelPosition=bottom;verticalAlign=top;align=center;html=1;shape=mxgraph.aws3.data_pipeline;fillColor=#F58534;gradientColor=none;" vertex="1" parent="1">
          <mxGeometry x="558.9" y="471.75" width="67.5" height="72.5" as="geometry" />
        </mxCell>
        <mxCell id="H447cMF2xVYTT7RYKdKf-68" value="&amp;nbsp;Gitlab pipeline (YML)" style="text;strokeColor=none;align=center;fillColor=none;html=1;verticalAlign=middle;whiteSpace=wrap;rounded=0;" vertex="1" parent="1">
          <mxGeometry x="535" y="440" width="120" height="30" as="geometry" />
        </mxCell>
        <mxCell id="H447cMF2xVYTT7RYKdKf-69" value="" style="sketch=0;outlineConnect=0;fontColor=#232F3E;gradientColor=none;fillColor=#2E27AD;strokeColor=none;dashed=0;verticalLabelPosition=bottom;verticalAlign=top;align=center;html=1;fontSize=12;fontStyle=0;aspect=fixed;pointerEvents=1;shape=mxgraph.aws4.rds_sql_server_instance;" vertex="1" parent="1">
          <mxGeometry x="731" y="470" width="78" height="78" as="geometry" />
        </mxCell>
        <mxCell id="H447cMF2xVYTT7RYKdKf-72" value="SQL Lite database" style="text;strokeColor=none;align=center;fillColor=none;html=1;verticalAlign=middle;whiteSpace=wrap;rounded=0;" vertex="1" parent="1">
          <mxGeometry x="740" y="560" width="60" height="20" as="geometry" />
        </mxCell>
        <mxCell id="H447cMF2xVYTT7RYKdKf-77" style="edgeStyle=orthogonalEdgeStyle;rounded=0;orthogonalLoop=1;jettySize=auto;html=1;" edge="1" parent="1" source="H447cMF2xVYTT7RYKdKf-73" target="H447cMF2xVYTT7RYKdKf-75">
          <mxGeometry relative="1" as="geometry" />
        </mxCell>
        <mxCell id="H447cMF2xVYTT7RYKdKf-73" value="" style="outlineConnect=0;dashed=0;verticalLabelPosition=bottom;verticalAlign=top;align=center;html=1;shape=mxgraph.aws3.android;fillColor=#FFD44F;gradientColor=none;" vertex="1" parent="1">
          <mxGeometry x="440" y="575" width="70" height="60" as="geometry" />
        </mxCell>
        <mxCell id="H447cMF2xVYTT7RYKdKf-79" style="edgeStyle=orthogonalEdgeStyle;rounded=0;orthogonalLoop=1;jettySize=auto;html=1;entryX=0;entryY=0.5;entryDx=0;entryDy=0;entryPerimeter=0;" edge="1" parent="1" source="H447cMF2xVYTT7RYKdKf-75" target="H447cMF2xVYTT7RYKdKf-76">
          <mxGeometry relative="1" as="geometry" />
        </mxCell>
        <mxCell id="H447cMF2xVYTT7RYKdKf-75" value="" style="outlineConnect=0;dashed=0;verticalLabelPosition=bottom;verticalAlign=top;align=center;html=1;shape=mxgraph.aws3.android;fillColor=#FFD44F;gradientColor=none;" vertex="1" parent="1">
          <mxGeometry x="545.6999999999999" y="580" width="78.6" height="50" as="geometry" />
        </mxCell>
        <mxCell id="H447cMF2xVYTT7RYKdKf-76" value="" style="outlineConnect=0;dashed=0;verticalLabelPosition=bottom;verticalAlign=top;align=center;html=1;shape=mxgraph.aws3.android;fillColor=#FFD44F;gradientColor=none;" vertex="1" parent="1">
          <mxGeometry x="646.5" y="580" width="73.5" height="50" as="geometry" />
        </mxCell>
        <mxCell id="H447cMF2xVYTT7RYKdKf-80" value="Etract.py" style="text;strokeColor=none;align=center;fillColor=none;html=1;verticalAlign=middle;whiteSpace=wrap;rounded=0;" vertex="1" parent="1">
          <mxGeometry x="387" y="620" width="60" height="30" as="geometry" />
        </mxCell>
        <mxCell id="H447cMF2xVYTT7RYKdKf-82" value="Transformation.py" style="text;strokeColor=none;align=center;fillColor=none;html=1;verticalAlign=middle;whiteSpace=wrap;rounded=0;" vertex="1" parent="1">
          <mxGeometry x="558.9" y="635" width="60" height="30" as="geometry" />
        </mxCell>
        <mxCell id="H447cMF2xVYTT7RYKdKf-84" value="Load.py" style="text;strokeColor=none;align=center;fillColor=none;html=1;verticalAlign=middle;whiteSpace=wrap;rounded=0;" vertex="1" parent="1">
          <mxGeometry x="715" y="620" width="60" height="30" as="geometry" />
        </mxCell>
      </root>
    </mxGraphModel>
  </diagram>
</mxfile>
